<svg width="10" height="10" viewBox="0 0 10 10" fill="none" xmlns="http://www.w3.org/2000/svg">
<g id="carbon:play-outline" clip-path="url(#clip0_4_56)">
<path id="Vector" d="M3.4375 7.1875C3.35462 7.1875 3.27513 7.15458 3.21653 7.09597C3.15792 7.03737 3.125 6.95788 3.125 6.875V3.125C3.12503 3.07175 3.13866 3.0194 3.16461 2.9729C3.19055 2.9264 3.22795 2.8873 3.27325 2.85932C3.31855 2.83133 3.37025 2.81538 3.42344 2.81298C3.47663 2.81059 3.52956 2.82182 3.57719 2.84563L7.32719 4.72063C7.37903 4.74661 7.42261 4.7865 7.45307 4.83584C7.48353 4.88518 7.49967 4.94202 7.49967 5C7.49967 5.05799 7.48353 5.11483 7.45307 5.16417C7.42261 5.2135 7.37903 5.25339 7.32719 5.27938L3.57719 7.15438C3.53382 7.1761 3.486 7.18744 3.4375 7.1875ZM3.75 3.63063V6.36938L6.48875 5L3.75 3.63063Z" fill="black"/>
<path id="Vector_2" d="M5 1.25C5.74168 1.25 6.46671 1.46993 7.08339 1.88199C7.70007 2.29404 8.18072 2.87971 8.46455 3.56494C8.74838 4.25016 8.82264 5.00416 8.67795 5.73159C8.53325 6.45902 8.1761 7.1272 7.65165 7.65165C7.12721 8.1761 6.45902 8.53325 5.73159 8.67794C5.00416 8.82264 4.25016 8.74838 3.56494 8.46455C2.87972 8.18072 2.29405 7.70007 1.88199 7.08339C1.46994 6.4667 1.25 5.74168 1.25 5C1.25 4.00544 1.64509 3.05161 2.34835 2.34835C3.05161 1.64509 4.00544 1.25 5 1.25ZM5 0.625C4.13471 0.625 3.28885 0.881589 2.56938 1.36232C1.84992 1.84305 1.28916 2.52633 0.958029 3.32576C0.626896 4.12519 0.540256 5.00485 0.709066 5.85352C0.877877 6.70219 1.29456 7.48174 1.90641 8.09359C2.51826 8.70545 3.29782 9.12212 4.14648 9.29094C4.99515 9.45975 5.87482 9.37311 6.67424 9.04197C7.47367 8.71084 8.15695 8.15008 8.63768 7.43062C9.11841 6.71115 9.375 5.86529 9.375 5C9.375 3.83968 8.91407 2.72688 8.09359 1.90641C7.27312 1.08594 6.16032 0.625 5 0.625Z" fill="black"/>
</g>
<defs>
<clipPath id="clip0_4_56">
<rect width="10" height="10" fill="white"/>
</clipPath>
</defs>
</svg>
