<svg width="24" height="24" viewBox="0 0 24 24" fill="none" xmlns="http://www.w3.org/2000/svg">
<g id="simple-icons:nike">
<path id="Vector" d="M24 7.79999L6.442 15.276C4.986 15.892 3.763 16.201 2.774 16.201C1.654 16.201 0.840997 15.809 0.336997 15.024C0.0199969 14.52 -0.0730031 13.881 0.0569969 13.106C0.186997 12.331 0.532997 11.506 1.093 10.628C1.56 9.91799 2.325 8.98499 3.39 7.82799C3.02876 8.39665 2.76387 9.02105 2.606 9.67599C2.326 10.871 2.578 11.748 3.362 12.308C3.735 12.569 4.248 12.7 4.902 12.7C5.424 12.7 6.012 12.616 6.666 12.448L24 7.79999Z" fill="black" fill-opacity="0.5"/>
</g>
</svg>
